<mxfile host="app.diagrams.net" modified="2021-07-05T14:52:46.922Z" agent="5.0 (Windows NT 10.0; Win64; x64) AppleWebKit/537.36 (KHTML, like Gecko) Chrome/91.0.4472.124 Safari/537.36" etag="1mtSY8jhTG6pnBCVPeo7" version="14.8.4" type="github">
  <diagram id="IlbVOifgxRV7zE4X4zYw" name="Page-1">
    <mxGraphModel dx="1038" dy="1316" grid="1" gridSize="10" guides="1" tooltips="1" connect="1" arrows="1" fold="1" page="1" pageScale="1" pageWidth="1169" pageHeight="827" math="0" shadow="0">
      <root>
        <mxCell id="0" />
        <mxCell id="1" parent="0" />
        <mxCell id="sam0_PX6vpb3sP9ME23c-4" style="edgeStyle=orthogonalEdgeStyle;rounded=0;orthogonalLoop=1;jettySize=auto;html=1;entryX=1;entryY=0.5;entryDx=0;entryDy=0;" edge="1" parent="1" source="sam0_PX6vpb3sP9ME23c-5" target="sam0_PX6vpb3sP9ME23c-8">
          <mxGeometry relative="1" as="geometry" />
        </mxCell>
        <mxCell id="sam0_PX6vpb3sP9ME23c-5" value="&lt;b&gt;Index&lt;/b&gt;" style="whiteSpace=wrap;html=1;aspect=fixed;" vertex="1" parent="1">
          <mxGeometry x="765" y="355" width="80" height="80" as="geometry" />
        </mxCell>
        <mxCell id="sam0_PX6vpb3sP9ME23c-6" style="edgeStyle=orthogonalEdgeStyle;rounded=0;orthogonalLoop=1;jettySize=auto;html=1;entryX=0.5;entryY=0;entryDx=0;entryDy=0;" edge="1" parent="1" source="sam0_PX6vpb3sP9ME23c-7" target="sam0_PX6vpb3sP9ME23c-5">
          <mxGeometry relative="1" as="geometry" />
        </mxCell>
        <mxCell id="sam0_PX6vpb3sP9ME23c-7" value="&lt;b&gt;APP&lt;/b&gt;" style="rounded=0;whiteSpace=wrap;html=1;" vertex="1" parent="1">
          <mxGeometry x="745" y="10" width="120" height="60" as="geometry" />
        </mxCell>
        <mxCell id="sam0_PX6vpb3sP9ME23c-8" value="&lt;b&gt;Front-End&lt;/b&gt;" style="shape=process;whiteSpace=wrap;html=1;backgroundOutline=1;" vertex="1" parent="1">
          <mxGeometry x="540" y="350" width="120" height="90" as="geometry" />
        </mxCell>
        <mxCell id="sam0_PX6vpb3sP9ME23c-9" style="edgeStyle=orthogonalEdgeStyle;rounded=0;orthogonalLoop=1;jettySize=auto;html=1;entryX=0;entryY=0.5;entryDx=0;entryDy=0;exitX=1;exitY=0.5;exitDx=0;exitDy=0;" edge="1" parent="1" source="sam0_PX6vpb3sP9ME23c-12" target="sam0_PX6vpb3sP9ME23c-7">
          <mxGeometry relative="1" as="geometry">
            <mxPoint x="580" y="40" as="targetPoint" />
            <mxPoint x="380" y="40" as="sourcePoint" />
          </mxGeometry>
        </mxCell>
        <mxCell id="sam0_PX6vpb3sP9ME23c-12" value="&lt;div&gt;&lt;b&gt;STOREFRONT&lt;br&gt;CONNECTED&lt;/b&gt;&lt;/div&gt;" style="whiteSpace=wrap;html=1;aspect=fixed;" vertex="1" parent="1">
          <mxGeometry x="280" y="-10" width="100" height="100" as="geometry" />
        </mxCell>
        <mxCell id="sam0_PX6vpb3sP9ME23c-20" value="&lt;b&gt;GET&lt;/b&gt;" style="ellipse;whiteSpace=wrap;html=1;" vertex="1" parent="1">
          <mxGeometry x="10" width="120" height="80" as="geometry" />
        </mxCell>
        <mxCell id="sam0_PX6vpb3sP9ME23c-21" style="edgeStyle=orthogonalEdgeStyle;rounded=0;orthogonalLoop=1;jettySize=auto;html=1;entryX=1;entryY=0.25;entryDx=0;entryDy=0;" edge="1" parent="1" source="sam0_PX6vpb3sP9ME23c-22" target="sam0_PX6vpb3sP9ME23c-7">
          <mxGeometry relative="1" as="geometry" />
        </mxCell>
        <mxCell id="sam0_PX6vpb3sP9ME23c-22" value="&lt;b&gt;HEADER&lt;/b&gt;" style="ellipse;whiteSpace=wrap;html=1;" vertex="1" parent="1">
          <mxGeometry x="990" y="-80" width="120" height="80" as="geometry" />
        </mxCell>
        <mxCell id="sam0_PX6vpb3sP9ME23c-23" style="edgeStyle=orthogonalEdgeStyle;rounded=0;orthogonalLoop=1;jettySize=auto;html=1;entryX=1;entryY=0.75;entryDx=0;entryDy=0;" edge="1" parent="1" source="sam0_PX6vpb3sP9ME23c-24" target="sam0_PX6vpb3sP9ME23c-7">
          <mxGeometry relative="1" as="geometry" />
        </mxCell>
        <mxCell id="sam0_PX6vpb3sP9ME23c-24" value="&lt;b&gt;FOOTER&lt;/b&gt;" style="ellipse;whiteSpace=wrap;html=1;" vertex="1" parent="1">
          <mxGeometry x="980" y="80" width="120" height="80" as="geometry" />
        </mxCell>
        <mxCell id="sam0_PX6vpb3sP9ME23c-25" style="edgeStyle=orthogonalEdgeStyle;rounded=0;orthogonalLoop=1;jettySize=auto;html=1;entryX=0.5;entryY=0;entryDx=0;entryDy=0;" edge="1" parent="1" source="sam0_PX6vpb3sP9ME23c-26" target="sam0_PX6vpb3sP9ME23c-28">
          <mxGeometry relative="1" as="geometry" />
        </mxCell>
        <mxCell id="sam0_PX6vpb3sP9ME23c-26" value="&lt;b&gt;CATEGORIES&lt;br&gt;REDUCER&lt;br&gt;&lt;/b&gt;" style="ellipse;whiteSpace=wrap;html=1;" vertex="1" parent="1">
          <mxGeometry x="1150" y="200" width="120" height="80" as="geometry" />
        </mxCell>
        <mxCell id="sam0_PX6vpb3sP9ME23c-27" style="edgeStyle=orthogonalEdgeStyle;rounded=0;orthogonalLoop=1;jettySize=auto;html=1;entryX=1;entryY=0.5;entryDx=0;entryDy=0;" edge="1" parent="1" source="sam0_PX6vpb3sP9ME23c-28" target="sam0_PX6vpb3sP9ME23c-30">
          <mxGeometry relative="1" as="geometry" />
        </mxCell>
        <mxCell id="sam0_PX6vpb3sP9ME23c-28" value="&lt;b&gt;STORE&lt;/b&gt;" style="ellipse;whiteSpace=wrap;html=1;" vertex="1" parent="1">
          <mxGeometry x="1150" y="355" width="120" height="80" as="geometry" />
        </mxCell>
        <mxCell id="sam0_PX6vpb3sP9ME23c-29" style="edgeStyle=orthogonalEdgeStyle;rounded=0;orthogonalLoop=1;jettySize=auto;html=1;entryX=1;entryY=0.5;entryDx=0;entryDy=0;" edge="1" parent="1" source="sam0_PX6vpb3sP9ME23c-30" target="sam0_PX6vpb3sP9ME23c-5">
          <mxGeometry relative="1" as="geometry" />
        </mxCell>
        <mxCell id="sam0_PX6vpb3sP9ME23c-30" value="&lt;b&gt;PROVIDER&lt;/b&gt;" style="ellipse;whiteSpace=wrap;html=1;" vertex="1" parent="1">
          <mxGeometry x="970" y="355" width="120" height="80" as="geometry" />
        </mxCell>
        <mxCell id="sam0_PX6vpb3sP9ME23c-31" value="&lt;b&gt;PRODUCTS&lt;br&gt;COMPONENET&lt;br&gt;&lt;/b&gt;" style="ellipse;whiteSpace=wrap;html=1;" vertex="1" parent="1">
          <mxGeometry x="1340" y="200" width="120" height="80" as="geometry" />
        </mxCell>
        <mxCell id="sam0_PX6vpb3sP9ME23c-32" value="" style="endArrow=classic;startArrow=classic;html=1;entryX=0;entryY=0.5;entryDx=0;entryDy=0;exitX=1;exitY=0.5;exitDx=0;exitDy=0;" edge="1" parent="1" source="sam0_PX6vpb3sP9ME23c-26" target="sam0_PX6vpb3sP9ME23c-31">
          <mxGeometry width="50" height="50" relative="1" as="geometry">
            <mxPoint x="1280" y="280" as="sourcePoint" />
            <mxPoint x="1330" y="230" as="targetPoint" />
          </mxGeometry>
        </mxCell>
        <mxCell id="sam0_PX6vpb3sP9ME23c-33" value="" style="endArrow=classic;html=1;entryX=0;entryY=0.5;entryDx=0;entryDy=0;exitX=1;exitY=0.5;exitDx=0;exitDy=0;" edge="1" parent="1" source="sam0_PX6vpb3sP9ME23c-20" target="sam0_PX6vpb3sP9ME23c-12">
          <mxGeometry width="50" height="50" relative="1" as="geometry">
            <mxPoint x="120" y="60" as="sourcePoint" />
            <mxPoint x="170" y="10" as="targetPoint" />
          </mxGeometry>
        </mxCell>
      </root>
    </mxGraphModel>
  </diagram>
</mxfile>
